<svg width="219" height="45" viewBox="0 0 219 45" fill="none" xmlns="http://www.w3.org/2000/svg">
<g clip-path="url(#clip0_18_1023)">
<path d="M67.4674 13.3502C65.9696 12.5036 64.2113 12.1129 62.1925 12.1129C60.1737 12.1129 58.3502 12.5036 56.9175 13.3502C55.4197 14.1968 54.3126 15.369 53.5311 16.8669C52.7496 18.3647 52.3589 20.123 52.3589 22.1418C52.3589 24.1606 52.7496 25.9189 53.5311 27.4168C54.3126 28.9146 55.4848 30.0868 56.9175 30.9334C58.4153 31.78 60.1737 32.1707 62.1925 32.1707C64.2113 32.1707 66.0347 31.78 67.4674 30.9334C68.9653 30.0868 70.0724 28.9146 70.8538 27.4168C71.6353 25.9189 72.0261 24.1606 72.0261 22.1418C72.0261 20.123 71.6353 18.3647 70.8538 16.8669C70.0724 15.369 68.9001 14.1968 67.4674 13.3502ZM65.3184 24.9421C65.0579 25.7236 64.6672 26.3748 64.1462 26.8307C63.6252 27.2865 62.974 27.547 62.2576 27.547C61.4761 27.547 60.8249 27.2865 60.3039 26.8307C59.7829 26.3748 59.3922 25.7236 59.0666 24.9421C58.741 24.1606 58.6107 23.1838 58.6107 22.1418C58.6107 21.0347 58.741 20.123 59.0014 19.2764C59.2619 18.4298 59.6527 17.8437 60.2388 17.3878C60.8249 16.932 61.411 16.6715 62.1925 16.6715C62.9088 16.6715 63.5601 16.932 64.081 17.3878C64.602 17.8437 64.9928 18.4949 65.2533 19.2764C65.5138 20.0579 65.644 21.0347 65.644 22.1418C65.7091 23.1838 65.5789 24.1606 65.3184 24.9421Z" fill="white"/>
<path d="M90.9117 13.0246C89.8698 12.4385 88.6975 12.1129 87.33 12.1129C85.8973 12.1129 84.6599 12.4385 83.6179 13.1549C82.576 13.8061 81.8596 14.7829 81.4038 15.9551H81.2084V12.3734H75.2822V31.9103H81.534V20.7091C81.534 19.9928 81.6643 19.3415 81.9247 18.8206C82.1852 18.2996 82.576 17.9088 83.097 17.5832C83.6179 17.3227 84.1389 17.1274 84.7902 17.1274C85.767 17.1274 86.5485 17.453 87.0695 18.0391C87.6556 18.6252 87.9161 19.4718 87.9161 20.5789V31.7801H94.1679V19.4067C94.1679 17.9088 93.9074 16.6715 93.3213 15.5644C92.6701 14.4573 91.8886 13.6107 90.9117 13.0246Z" fill="white"/>
<path d="M110.709 15.6947H110.579C110.318 15.1086 109.993 14.5224 109.472 14.0015C109.016 13.4805 108.365 13.0246 107.648 12.6339C106.932 12.3083 106.02 12.1129 105.043 12.1129C103.676 12.1129 102.373 12.4385 101.201 13.1549C100.029 13.8712 99.0521 14.9783 98.3358 16.4761C97.6194 17.974 97.2287 19.8625 97.2287 22.1418C97.2287 24.356 97.5543 26.1795 98.2706 27.6773C98.987 29.1751 99.8987 30.2822 101.071 31.0637C102.243 31.7801 103.546 32.1708 104.978 32.1708C105.955 32.1708 106.802 32.0405 107.518 31.7149C108.234 31.3893 108.821 30.9986 109.342 30.4125C109.797 29.8915 110.188 29.3054 110.449 28.7193H110.644V31.9103H116.831V5.86108H110.709V15.6947ZM110.384 24.8119C110.123 25.5934 109.667 26.1795 109.146 26.6353C108.625 27.0912 107.974 27.2866 107.192 27.2866C106.411 27.2866 105.76 27.0912 105.239 26.6353C104.718 26.1795 104.327 25.5934 104.001 24.8119C103.741 24.0304 103.611 23.1187 103.611 22.0767C103.611 21.0348 103.741 20.123 104.001 19.3416C104.262 18.5601 104.653 17.974 105.239 17.5181C105.76 17.0622 106.411 16.8669 107.192 16.8669C107.974 16.8669 108.625 17.0622 109.146 17.5181C109.667 17.9088 110.123 18.495 110.384 19.2764C110.644 20.0579 110.839 20.9696 110.839 22.0116C110.839 23.1187 110.709 24.0304 110.384 24.8119Z" fill="white"/>
<path d="M135.586 13.8061C134.805 13.22 133.893 12.8292 132.851 12.5036C131.809 12.2431 130.637 12.0478 129.399 12.0478C127.641 12.0478 126.143 12.3083 124.906 12.8292C123.669 13.3502 122.692 14.1317 121.975 15.0434C121.259 15.9551 120.803 17.0622 120.673 18.2345L126.404 18.4298C126.534 17.7786 126.86 17.3227 127.381 16.932C127.902 16.6064 128.553 16.411 129.334 16.411C130.116 16.411 130.702 16.6064 131.158 16.932C131.614 17.2576 131.809 17.7786 131.809 18.4298V18.4949C131.809 18.8857 131.679 19.2113 131.353 19.4067C131.028 19.602 130.572 19.7974 129.855 19.9277C129.204 20.0579 128.292 20.123 127.185 20.2533C126.208 20.3184 125.232 20.5138 124.385 20.7743C123.538 21.0347 122.757 21.3604 122.041 21.8162C121.389 22.2721 120.868 22.8582 120.478 23.6397C120.087 24.356 119.892 25.3329 119.892 26.3748C119.892 27.6773 120.152 28.7193 120.738 29.5659C121.324 30.4125 122.041 31.0637 123.017 31.4544C123.994 31.8452 125.101 32.1057 126.339 32.1057C127.25 32.1057 128.032 31.9754 128.813 31.7801C129.595 31.5847 130.181 31.1939 130.702 30.7381C131.223 30.2822 131.679 29.6961 132.004 29.0449H132.135V31.7801H137.996V18.5601C137.996 17.5181 137.8 16.6064 137.345 15.8249C136.954 15.0434 136.368 14.3271 135.586 13.8061ZM131.874 24.9421C131.874 25.5934 131.744 26.1143 131.418 26.6353C131.093 27.0912 130.637 27.4819 130.116 27.7424C129.595 28.0029 128.944 28.1332 128.292 28.1332C127.576 28.1332 126.99 27.9378 126.534 27.6122C126.078 27.2866 125.818 26.7656 125.818 26.1143C125.818 25.6585 125.948 25.3329 126.143 25.0073C126.339 24.6816 126.664 24.4211 127.055 24.2258C127.446 24.0304 127.967 23.9002 128.553 23.7699C128.813 23.7048 129.139 23.7048 129.465 23.6397C129.79 23.5745 130.116 23.5094 130.376 23.4443C130.702 23.3792 130.962 23.3141 131.223 23.2489C131.483 23.1838 131.679 23.1187 131.874 22.9884V24.9421Z" fill="white"/>
<path d="M152.648 12.0478C151.606 12.0478 150.63 12.3734 149.848 13.0246C149.067 13.6758 148.481 14.5876 148.09 15.89H147.894V12.3083H141.838V31.8452H148.09V21.2301C148.09 20.4486 148.285 19.7974 148.611 19.2113C148.936 18.6252 149.392 18.1693 149.978 17.8437C150.564 17.5181 151.216 17.3227 151.997 17.3227C152.388 17.3227 152.779 17.3227 153.3 17.3879C153.756 17.453 154.146 17.5181 154.472 17.6484V12.2431C154.211 12.178 153.951 12.1129 153.625 12.0478C153.3 11.9826 152.909 12.0478 152.648 12.0478Z" fill="white"/>
<path d="M170.297 13.3502C168.799 12.5036 167.041 12.1129 165.022 12.1129C162.938 12.1129 161.18 12.5036 159.747 13.3502C158.249 14.1968 157.142 15.369 156.36 16.8669C155.579 18.3647 155.188 20.123 155.188 22.1418C155.188 24.1606 155.579 25.9189 156.36 27.4168C157.142 28.9146 158.314 30.0868 159.747 30.9334C161.245 31.78 163.003 32.1707 165.022 32.1707C167.106 32.1707 168.864 31.78 170.297 30.9334C171.795 30.0868 172.902 28.9146 173.683 27.4168C174.465 25.9189 174.855 24.1606 174.855 22.1418C174.855 20.123 174.465 18.3647 173.683 16.8669C172.902 15.369 171.795 14.1968 170.297 13.3502ZM168.148 24.9421C167.887 25.7236 167.496 26.3748 166.975 26.8307C166.454 27.2865 165.803 27.547 165.087 27.547C164.305 27.547 163.654 27.2865 163.133 26.8307C162.612 26.3748 162.221 25.7236 161.896 24.9421C161.635 24.1606 161.505 23.1838 161.505 22.1418C161.505 21.0347 161.635 20.123 161.896 19.2764C162.156 18.4949 162.547 17.8437 163.133 17.3878C163.654 16.932 164.305 16.6715 165.087 16.6715C165.803 16.6715 166.454 16.932 166.975 17.3878C167.496 17.8437 167.887 18.4949 168.148 19.2764C168.408 20.0579 168.538 21.0347 168.538 22.1418C168.538 23.1838 168.408 24.1606 168.148 24.9421Z" fill="white"/>
<path d="M185.405 17.3879C185.926 16.9971 186.577 16.8018 187.294 16.8018C188.205 16.8018 188.922 17.0622 189.443 17.6484C190.029 18.2345 190.354 19.0159 190.485 19.9928H196.281C196.216 18.3647 195.825 16.9971 195.108 15.8249C194.327 14.6527 193.285 13.741 191.983 13.0897C190.615 12.4385 189.052 12.1129 187.229 12.1129C185.21 12.1129 183.451 12.5687 181.954 13.4153C180.456 14.262 179.349 15.4342 178.567 16.932C177.786 18.4298 177.395 20.1882 177.395 22.207C177.395 24.2258 177.786 25.9841 178.567 27.482C179.349 28.9798 180.456 30.152 181.954 30.9986C183.451 31.8452 185.21 32.3011 187.229 32.3011C189.052 32.3011 190.615 31.9755 191.983 31.3242C193.35 30.673 194.327 29.6962 195.108 28.5239C195.825 27.3517 196.281 25.919 196.281 24.2909H190.485C190.42 25.0073 190.224 25.5934 189.964 26.0493C189.703 26.5051 189.313 26.8959 188.857 27.1563C188.401 27.4168 187.88 27.5471 187.294 27.5471C186.577 27.5471 185.926 27.3517 185.405 26.961C184.884 26.5702 184.428 25.9841 184.168 25.1375C183.842 24.356 183.712 23.3792 183.712 22.207C183.712 21.0348 183.842 20.0579 184.168 19.2764C184.428 18.4298 184.819 17.7786 185.405 17.3879Z" fill="white"/>
<path d="M211.585 31.8452H218.813L211.585 20.8394L218.488 12.3083H211.455L205.984 19.3415H205.659V5.79596H199.472V31.8452H205.659V25.9841L206.961 24.4863L211.585 31.8452Z" fill="white"/>
<path d="M14.9783 29.9566C18.9346 29.9566 22.1418 26.7494 22.1418 22.793C22.1418 18.8367 18.9346 15.6295 14.9783 15.6295C11.022 15.6295 7.81476 18.8367 7.81476 22.793C7.81476 26.7494 11.022 29.9566 14.9783 29.9566Z" fill="#FF6955"/>
<path d="M14.9783 37.7713C6.70767 37.7713 0 31.0637 0 22.793C0 14.5224 6.70767 7.81476 14.9783 7.81476C23.2489 7.81476 29.9566 14.5224 29.9566 22.793C29.9566 31.0637 23.2489 37.7713 14.9783 37.7713ZM14.9783 11.7221C8.85673 11.7221 3.90738 16.6715 3.90738 22.793C3.90738 28.9146 8.85673 33.864 14.9783 33.864C21.0999 33.864 26.0492 28.9146 26.0492 22.793C26.0492 16.6715 21.0999 11.7221 14.9783 11.7221Z" fill="white"/>
<path d="M37.7713 22.7931C37.7713 22.5977 37.7713 22.4023 37.7713 22.1418C37.4457 9.8987 27.3517 0 14.9783 0V3.90738C25.398 3.90738 33.864 12.3734 33.864 22.7931C33.864 27.8075 31.9103 32.5615 28.3285 36.1433L26.9609 37.5109L34.4501 45L37.1852 42.2648L32.4313 37.5109C35.8828 33.343 37.7713 28.1983 37.7713 22.7931Z" fill="white"/>
</g>
<defs>
<clipPath id="clip0_18_1023">
<rect width="218.813" height="45" fill="white"/>
</clipPath>
</defs>
</svg>
